<svg xmlns="http://www.w3.org/2000/svg" width="2666.67" height="1424" version="1.0" viewBox="0 0 2000 1068"><path d="M710.7 316.7c-.3.5-1.1 6.5-1.8 13.5l-1.2 12.8H607.1l-.6 4.2c-.3 2.4-4.6 43-9.5 90.3-5 47.3-9.7 89.6-10.5 94.1-6.5 35.3-26.1 58.9-57.5 69.5-8.4 2.9-11.1 3.3-23.6 3.7-16.7.5-25-.9-36.4-6.4-10-4.8-20.1-15-25.2-25.4-5.7-11.8-6.9-17.6-7.5-35-.4-14.4.2-21.7 8.6-101.5 5-47.3 9.3-87.7 9.6-89.8l.5-3.7H353.4l-9.8 94c-9.9 93.9-9.9 93.9-9.3 113.7.6 22.3 2.2 31.8 7.9 47 14.9 39.6 47.8 59 112.8 66.5 17.6 2 74.8 1.7 91.5-.5 46.8-6.2 76.3-18 97.7-39 21.8-21.3 36.4-51 42.8-87.2 1.5-8.6 21-187.8 21-193.2 0-1 27.1-1.3 137.1-1.3h137.2l-.6 4.7c-.3 2.7-1.8 16.8-3.3 31.5l-2.8 26.8H802l-.4 2.2c-.5 2.3-6.6 60.4-6.6 62.6 0 .9 19.4 1.2 79.1 1.2h79.2l-.6 4.7a5479 5479 0 0 0-3.3 32l-2.9 27.3H788.2l-.6 4.7c-.3 2.7-3.1 28.6-6.1 57.8-3 29.1-5.7 54.5-6 56.2l-.6 3.3h-50c-39.1 0-50.1.3-50.4 1.2-.2.7-2.4 21.3-5 45.8-2.5 24.5-4.7 45.7-5 47.2l-.4 2.8H939l.5-2.3c.5-2.5 9.5-89.3 9.5-92 0-1.6 3.1-1.7 50.5-1.7h50.5l.4-2.3c.3-1.2 3.3-29 6.7-61.7 3.4-32.7 6.2-59.6 6.3-59.6 0-.1 12.3.2 27.1.7 14.9.4 34.7.8 44.1.8l17.1.1 5.4 3.9c6 4.3 8.3 7.1 12.5 15.1 2.9 5.5 2.9 5.5 2.9 24.5 0 10.4-.2 32.3-.5 48.5l-.5 29.5 99.4.3c54.7.1 99.8-.1 100.2-.5.5-.5 5.8-48.3 11.9-106.3 6.1-58 11.2-105.6 11.4-105.7.1-.1 27.4 47.7 60.6 106.2l60.3 106.5h136.6l.6-3.3c.7-4.3 32.5-308.2 32.5-310.7 0-2-.8-2-47-2h-47l-.5 2.2c-.2 1.3-5.2 47.7-11 103.2s-10.7 101.1-10.8 101.3c-.2.2-26-46.2-57.3-103.2L1454.5 343h-72.2c-57.2 0-72.3.3-72.3 1.2 0 2.1-30 287.2-30.4 288.3-.1.5-.6-16.8-1-38.5s-1.2-42.8-1.7-46.9c-2.2-15.8-8.1-25.4-19.5-31.3-7.9-4.1-23.7-9.4-31.2-10.4-3.9-.5-5.2-1.1-5.2-2.3 0-1.2 2.4-2.5 8.8-4.5 30.9-10 54.7-29.3 63.9-51.9 7.5-18.5 6.9-42.5-1.4-58-11-20.3-42-38.2-76.7-44.2-7.6-1.3-25-1.5-120.9-1.5h-112l.6-6.3c.4-3.4 1-9.5 1.3-13.5l.7-7.2H848.2c-75.4 0-137.3.3-137.5.7zm452.3 87.5c8.6 3.2 19.7 10.4 23.5 15.4 4.5 5.9 5.8 10.2 5.3 17.9-1.2 18.1-14.3 31.9-36.3 38.1-5 1.4-12.5 1.8-46.1 2.1l-40.1.5 2.3-21.8c1.3-12.1 3.1-29.5 4-38.7l1.8-16.8 39 .3 39.1.3 7.5 2.7zM708.8 687.7c-.3 2.7-.5 2.8-7.4 3.1l-7.2.3-.6 4.7c-.4 2.6-.9 5.5-1.2 6.4-.5 1.6.3 1.8 6.6 1.8 6.8 0 7.1.1 6.8 2.2-.3 2.1-1 2.3-7.3 2.8l-7 .5-1.1 6c-.7 3.3-1.5 7.7-1.8 9.7-.6 3.2-1.1 3.8-3.1 3.8-1.4 0-2.5-.3-2.5-.8 0-.4 1.6-9.9 3.5-21.2 1.9-11.3 3.5-20.8 3.5-21.3 0-.4 4.3-.7 9.6-.7h9.5l-.3 2.7zm34.2-1.3c0 4-1.1 4.6-8 4.6h-6.8l-.6 3.7c-.4 2.1-.9 5-1.2 6.5l-.6 2.8h7.1c7 0 7.7.3 6.5 3.4-.5 1.2-2.1 1.6-7 1.6-7.3 0-7.5.3-8.8 9.2l-.7 4.8h7.1c6.2 0 7.1.2 6.6 1.6-.3.9-.6 2.2-.6 3 0 1.1-2 1.4-9.5 1.4-6.2 0-9.5-.4-9.5-1.1 0-1.2 5.6-35.4 6.6-40.2l.6-2.7h9.4c7.4 0 9.4.3 9.4 1.4zm33.9.6c6.3 3.1 8.6 8 8.5 17.5 0 9.2-2 14.2-7.8 19.3-4.4 3.9-9.1 5.2-18.3 5.2-6.7 0-7.3-.2-7.3-2.1 0-2.1 5.8-38.5 6.5-40.7.7-2.1 13.9-1.6 18.4.8zm44.9.7c-.3 2.7-.5 2.8-7.4 3.1l-7.2.3-.6 4.7c-.4 2.6-.9 5.5-1.2 6.4-.5 1.6.3 1.8 6.6 1.8 6.8 0 7.1.1 6.8 2.2-.3 2.1-1 2.3-7.2 2.8-7.7.6-7.5.3-9 9.7l-.6 4.3h7.1c6.9 0 7.1.1 6.5 2.2-.3 1.3-.6 2.6-.6 3 0 .5-4.3.8-9.5.8s-9.5-.3-9.5-.8c0-.4 1.6-9.9 3.5-21.2 1.9-11.3 3.5-20.8 3.5-21.3 0-.4 4.3-.7 9.6-.7h9.5l-.3 2.7zm32.8-1.1c9.3 4.4 8.4 19.7-1.3 24.1-2.1 1-4 1.8-4.2 2-.2.1 1.3 3.7 3.3 7.9 2 4.2 3.6 7.8 3.6 8.1 0 .2-1.2.3-2.7.1-2.3-.3-3.4-1.6-7.4-9.8-2.6-5.2-4.8-10.1-4.8-10.8-.1-.8 1.4-1.2 4.3-1.2 6 0 9.7-3.1 9.9-8.2.1-5.4-2.4-7.8-8.3-7.8-5.6 0-4.7-2.1-8.6 21.2-2.6 16.2-2.8 16.8-5.1 16.8-1.4 0-2.3-.6-2.3-1.6 0-1.6 5.6-36.1 6.5-40.2.5-2 1.1-2.2 7.1-2.2 4 0 7.9.6 10 1.6zm40.7 19.6c2.1 11.7 3.7 21.6 3.7 22 0 .5-1.1.8-2.4.8-2.5 0-2.6-.2-4.2-9.3l-.6-3.7h-15.4l-3 6.2c-2.4 5.3-3.4 6.4-5.7 6.6-3.3.4-4.1 2.8 8.8-24.7 8.8-18.7 9.1-19.1 12.1-19.1h3.1l3.6 21.2zm26.2-19c-.9 4.2-5.5 32.5-5.5 34.2 0 1.3 1.1 1.6 6 1.6 6.2 0 6.9.6 5.4 4.4-.5 1.3-2.3 1.6-9.3 1.6h-8.8l3.4-20.8c1.9-11.4 3.6-21.3 3.8-22 .3-.6 1.6-1.2 3-1.2 2.1 0 2.5.4 2 2.2z"/><path d="M762.6 692.1c-.3 1.3-1.6 8.8-2.9 16.6l-2.4 14.3h5.6c7.3 0 11.9-2.5 15-8 4.3-7.6 2.7-20-2.9-23-1.1-.6-4.3-1.4-7-1.7-4.6-.5-4.9-.4-5.4 1.8zM883.3 701l-4.1 9h5.9c5.3 0 6-.2 5.5-1.8-.2-.9-.8-4.2-1.2-7.2-1.2-9.9-1.6-9.9-6.1 0zM498 686.8c-3.1 3.1-4.6 8.6-3.6 12.8.7 2.8 3.7 6 9.9 10.7 3 2.2 3.7 3.5 3.7 6.1 0 3.8-2.6 6.6-6.1 6.6-3.3 0-4.9-1.7-4.9-5.2 0-2.5-.3-2.8-3.6-2.8-3.6 0-3.6 0-2.9 3.6 1.5 8.1 5 11.4 12.1 11.4 2.9 0 4.4-.8 7.5-3.9 3.7-3.7 4.5-6 4-11.6-.3-4.3-2.5-7.6-7.2-11-6.4-4.5-7.8-7.5-5.5-11 2.5-3.8 6.8-3.1 8.1 1.2.8 2.8 1.4 3.3 3.8 3.3 2.9 0 3-.1 2.4-4.2-.8-5.8-4.3-8.8-10.3-8.8-3.7 0-5.1.6-7.4 2.8zM1007.5 685.4c-10.2 4.7-15.8 19.3-12.1 31.8 4.8 16.5 26.3 17.3 34.5 1.3 3.8-7.2 4.2-19.2.9-25.4-3.3-6.4-6.6-8.4-14.1-8.8-3.8-.2-7.3.2-9.2 1.1zm14.3 6.2c5.6 3.9 7 15.3 3 23.4-7.9 15.6-26.6 9.2-24.3-8.4.8-6.5 3.9-12.2 7.8-14.6 3.9-2.4 10.4-2.6 13.5-.4zM1113.5 685.3c-10.4 4.8-16.1 20.6-11.9 33 5.3 15.5 26.4 15.6 34.3.2 3.8-7.2 4.2-19.2.9-25.4-3.3-6.4-6.6-8.4-14.1-8.8-3.7-.2-7.4.2-9.2 1zm13.5 6.2c4.1 2.1 6 6.3 6 13.2 0 6.9-2.9 13.5-7.3 16.7-4.2 3.1-11.7 2.9-15.1-.3-5.1-4.8-5.8-14.9-1.6-23.1 3.6-7.1 11.4-9.9 18-6.5zM1172.2 686.1c-15.9 7.9-16.5 36.9-.9 42.8 10.3 3.9 21.3-2 25.7-13.6 3.2-8.6 3.6-8.3-10-8.3h-12v6h17.1l-1.8 3.1c-3.7 6.3-11.9 9.5-17.3 6.7-7-3.7-9.2-15-4.7-23.8 5.3-10.7 18-12.2 22.8-2.8 1.4 2.7 2.6 3.8 4.3 3.8 3.3 0 3.7-.8 2-4.9-4.3-10.2-14.9-14-25.2-9zM1438.5 685.7c-8.3 4.3-11.7 10.5-12.3 22.3-.3 7.5-.1 9 2 12.9 7.3 13.7 27.9 11.1 34.3-4.2 2.2-5.2 2.9-14.4 1.6-19.4-1.3-4.9-5.1-9.7-9.2-11.8-3.7-1.9-12.6-1.8-16.4.2zm15.4 6.9c3.7 3.1 5.5 9.1 4.6 15.3-1.8 12.1-11.6 19.2-20.4 14.6-7.7-4-8.2-20.4-.8-28.3 4.6-5 11.8-5.7 16.6-1.6zM1536.1 686.1c-12.3 6.3-16.3 27.8-7 38.4 3.8 4.2 8.7 5.9 15.2 5.2 6.6-.8 11.7-4.5 15.3-11 2.6-4.6 2.9-6.2 2.9-13.7 0-14.2-4.6-20.1-16-20.8-4.7-.2-6.9.2-10.4 1.9zm14.8 5.4c9.7 5 7.2 26.6-3.7 31.2-7 2.9-13.9-.3-16.3-7.5-1.5-4.5-.6-13.4 1.8-17.5 4-6.8 11.9-9.5 18.2-6.2zM316.5 701.7c-2.9 17.9-2.7 22 1.4 25.7 4.9 4.5 15.6 2.4 18.7-3.6 1.4-2.7 7.4-33.1 7.4-37.6 0-.7-1.2-1.2-2.8-1.2h-2.9l-2.7 16.2c-2.7 16.5-4.3 20.9-8 21.6-3.2.7-6.6-.8-7.1-3.1-.4-1.3.5-9.1 1.9-17.4 1.5-8.3 2.6-15.6 2.6-16.2 0-.6-1.3-1.1-2.8-1.1h-2.9l-2.8 16.7zM349.1 705.2c-1.9 11.1-3.6 21-3.9 22-.3 1.4.2 1.8 2.6 1.8 3.5 0 3.2 1 6.3-18.5 1.2-7.7 2.5-14.3 2.8-14.7.4-.4 2.9 6.8 5.7 16l5 16.7h7.8l3.6-21.8 3.7-21.7h-2.8c-3.3 0-3.1-.6-6 17-1.2 7.4-2.5 14-2.8 14.7-.3.6-2.8-6.2-5.5-15.3l-5-16.4h-8.1l-3.4 20.2zM387.1 704.7c-1.8 10.9-3.5 20.8-3.8 22-.4 2-.1 2.3 2.5 2.3 2.5 0 3.1-.5 3.6-2.8 1-4.7 6.6-38.9 6.6-40.1 0-.6-1.3-1.1-2.8-1.1h-2.9l-3.2 19.7zM399.4 687.2c.3 1.3 1.7 11.2 3.2 22l2.7 19.8h7.2l9.8-21.3c5.3-11.6 9.7-21.5 9.7-22 0-.4-1.3-.7-2.9-.7-2.8 0-3.2.7-10.7 17.5-6.3 13.9-8 17-8.6 15.2-.4-1.2-1.4-8.1-2.3-15.2-2.2-18.1-2-17.5-5.5-17.5-2.6 0-3 .3-2.6 2.2zM436 685.7c0 .5-1.6 10-3.5 21.3s-3.5 20.8-3.5 21.2c0 .5 4.4.8 9.9.8h9.9l.5-2.7c.3-1.6.3-3.1 0-3.5-.2-.5-3.4-.8-6.9-.8h-6.6l.6-3c.3-1.7.9-4.4 1.2-6 .6-3 .6-3 7.4-3 6.2 0 6.8-.2 7.4-2.3 1.2-4.5.9-4.7-6.4-4.7-6.8 0-7-.1-6.6-2.3.3-1.2.8-3.9 1.1-6l.6-3.7h6.8c5.4 0 7-.4 7.5-1.6 1.6-4.1 1-4.4-9.4-4.4-5.5 0-10 .3-10 .7zM463.5 687.2c-.9 4.1-6.5 38.6-6.5 40.2 0 1.1.9 1.6 2.8 1.6h2.8l2.7-17.3c3.6-22.2 3.1-20.7 7.7-20.7 5.4 0 8.4 2.7 8.3 7.5-.2 5.2-2.9 7.7-9.2 8.3-2.8.2-5.1.7-5.1 1.1 0 .3 2.1 5.2 4.7 10.8 4.6 9.9 4.9 10.3 8.1 10.3 1.7 0 3.2-.2 3.2-.5s-1.6-3.7-3.5-7.5c-4-8-4.2-9-1.6-9 2.7 0 7.1-3.9 8.7-7.6 1.8-4.3 1.8-8.6 0-12.9-2-4.8-6-6.5-15-6.5-7 0-7.6.2-8.1 2.2zM521.2 705.2a826.1 826.1 0 0 1-3.8 22c-.4 1.4.1 1.8 2.5 1.8s3-.5 3.5-2.8c1-4.7 6.6-38.9 6.6-40.1 0-.6-1.3-1.1-2.8-1.1h-2.8l-3.2 20.2zM537.6 687.2c-1 4.2-6.6 38.6-6.6 40.3 0 1.5 1.1 1.7 10.4 1.3 9.4-.3 10.7-.6 14.5-3.2 11.5-8 13.2-30.4 2.8-38-2.3-1.7-4.7-2.2-11.7-2.4-8.7-.4-8.9-.3-9.4 2zm18.4 6.6c4.9 5 4.9 16.3-.1 23.3-2.3 3.3-8.6 5.9-14.3 5.9h-4.3l2.4-14.8c1.3-8.1 2.6-15.3 2.8-16 .3-.7 2.3-1.2 5.5-1.2 4.3 0 5.6.5 8 2.8zM577.3 698.7c-3.6 7.6-8.2 17.5-10.3 22l-3.9 8.3h3.4c3.1 0 3.4-.4 6-6.5l2.8-6.5h7.3c8.1 0 7.2-.9 9 9.2.5 3.4 1 3.8 3.5 3.8 1.7 0 2.9-.5 2.9-1.3 0-.6-1.6-10.2-3.5-21.2s-3.5-20.3-3.5-20.7c0-.5-1.6-.8-3.6-.8h-3.5l-6.6 13.7zm11.1 6.5.7 4.8h-5c-2.8 0-5.1-.4-5.1-.9 0-.4 1.7-4.4 3.7-8.7l3.7-7.9.7 4c.3 2.2 1 6.1 1.3 8.7zM607.6 687.2c-1 4.2-6.6 38.6-6.6 40.3 0 1.5 1.1 1.7 10.4 1.3 9.4-.3 10.7-.6 14.5-3.2 11.5-8 13.2-30.4 2.8-38-2.3-1.7-4.7-2.2-11.7-2.4-8.7-.4-8.9-.3-9.4 2zm18.3 6.6c5 4.9 5 16.4 0 23.3-2.3 3.3-8.6 5.9-14.3 5.9h-4.3l2.4-14.8c1.3-8.1 2.6-15.3 2.8-16 .3-.7 2.3-1.2 5.5-1.2 4.3 0 5.6.5 7.9 2.8zM642.1 704.7c-1.8 10.9-3.5 20.8-3.8 22-.5 2.3-.4 2.3 9.5 2.3 9.5 0 10-.1 10.6-2.3 1.2-4.5.9-4.7-6.5-4.7-6.2 0-7-.2-6.5-1.8.2-.9.8-3.6 1.1-6l.7-4.2h6.8c7.1 0 8-.6 8-5.1 0-1.7-.8-1.9-6.8-1.9h-6.9l1-6 1-5.9 7.1-.3c6.9-.3 7.1-.4 7.4-3.1l.3-2.7h-19.8l-3.2 19.7zM961.6 687.7c-.7 3.3-6.6 39.8-6.6 40.8 0 .4 4.7.5 10.4.3 9.7-.3 10.7-.5 14.7-3.3 6-4.2 9.1-10.6 9.6-19.8.4-6.1.1-7.9-1.9-11.7-3.6-7-7.4-9-17.4-9-8.2 0-8.2 0-8.8 2.7zm17.7 5.3c3.4 2.7 5.1 8.1 4.4 14.1-1.2 10-6 14.8-15.7 15.6-4.7.5-6 .3-6-.8 0-.8 1.1-7.9 2.5-15.9s2.5-14.6 2.5-14.8c0-.1 2.2-.2 4.9-.2 3.3 0 5.6.6 7.4 2zM1056.1 704.7c-1.8 10.9-3.5 20.8-3.8 22-.4 2-.1 2.3 2.5 2.3 3.4 0 2.9 1.2 5.6-14l1.3-7.5 5.2 10.7c4.8 10.2 5.3 10.8 8.1 10.8 1.7 0 3-.5 3-1 0-.6-1.6-4.2-3.5-8s-3.5-7.2-3.5-7.5c0-.3.9-.5 2-.5s3.7-1.5 5.7-3.4c3.4-3.1 3.7-3.9 4.1-9.8.4-6.1.2-6.7-2.6-9.9-3-3.3-3.3-3.4-11.9-3.7l-9-.4-3.2 19.9zM1075 693c3.7 3.7 1.9 11.2-3.3 13-3.9 1.3-9.7 1.3-9.7-.1 0-.5.5-4.1 1.1-8l1.2-6.9h4.3c3.1 0 5 .6 6.4 2zM1091.6 687.7c-1 4.8-6.6 39-6.6 40.2 0 .6 1.3 1.1 2.8 1.1h2.9l3.2-19.8c1.8-10.8 3.5-20.7 3.8-22 .4-1.9.1-2.2-2.5-2.2-2.5 0-3.1.5-3.6 2.7zM1205.1 704.7c-1.8 10.9-3.5 20.8-3.8 22-.4 2-.1 2.3 2.5 2.3 3.4 0 3.4 0 5.3-12.8.7-4.5 1.5-8.2 1.8-8.2.3 0 2.7 4.7 5.3 10.3 4.5 10 4.7 10.2 8.3 10.5l3.6.3-3.6-7c-1.9-3.9-3.5-7.6-3.5-8.4 0-.7 1.6-1.9 3.4-2.5 9.7-3.5 10.7-20.2 1.5-24.9-1.3-.7-5.8-1.3-10-1.3h-7.6l-3.2 19.7zM1224 693c2.3 2.3 2.6 7.6.6 10.2-1.7 2.2-5.9 3.8-10.2 3.8-3.9 0-3.8.3-2.3-9.1l1.2-6.9h4.3c3.1 0 5 .6 6.4 2z"/><path d="M1247.5 688.2c-.7 1.8-4.9 10.8-9.3 20-10.3 21.4-10.1 20.8-6.4 20.8 2.7 0 3.3-.6 6.1-6.5l3-6.6 7.3.3 7.3.3.9 6.2c.9 6.2.9 6.3 4.1 6.3h3.2l-3.8-21.8c-2.1-11.9-3.8-21.8-3.9-22 0-.1-1.6-.2-3.6-.2-3 0-3.7.4-4.9 3.2zm6 15.7.7 6.1h-5.2c-3.8 0-5.1-.3-4.7-1.3.3-.6 2-4.5 3.8-8.6 3.7-8.3 4-8.1 5.4 3.8zM1273.5 687.2c-.9 4.1-6.5 38.6-6.5 40.2 0 1.1.9 1.6 2.8 1.6h2.8l2.9-17.8 2.9-17.7 3.2 10.5c1.8 5.8 4.2 13.8 5.4 17.7l2.2 7.3h3.9c2.1 0 3.9-.3 3.9-.8 0-.4 1.6-9.9 3.5-21.2 1.9-11.3 3.5-20.8 3.5-21.3 0-.4-1.3-.7-3-.7-1.6 0-3 .3-3 .6 0 .9-5 30.7-5.4 31.9-.3 1.1-1.3-1.8-7.1-20.8l-3.6-11.7h-3.9c-3.3 0-4 .4-4.5 2.2zM1311.6 686.2c-.3.7-2 10.6-3.9 22l-3.4 20.8h8.7c10.5 0 14.3-1.2 19.2-5.8 9.7-9.2 9.9-28.6.4-35.6-2.2-1.7-4.6-2.2-11.7-2.4-6.8-.3-9-.1-9.3 1zm16.3 6.3c3.6 1.8 5.5 6.5 5.4 13.2-.3 10.5-7.7 17.8-17.5 17.1l-4.3-.3 2.4-15.8 2.5-15.7h4.3c2.4 0 5.7.7 7.2 1.5zM1349 685.7c0 .5-1.6 10-3.5 21.3s-3.5 20.8-3.5 21.2c0 .5 4.4.8 9.9.8h9.9l.5-2.7c.3-1.6.3-3.1 0-3.5-.2-.5-3.4-.8-6.9-.8h-6.6l.6-3c.3-1.7.9-4.4 1.2-6 .6-3 .6-3 7.4-3 7.1 0 8-.6 8-5.1 0-1.7-.8-1.9-7.1-1.9-6.2 0-7-.2-6.5-1.8.2-.9.8-3.6 1.1-6l.7-4.2h6.8c5.3 0 6.9-.4 7.4-1.6 1.6-4.1 1-4.4-9.4-4.4-5.5 0-10 .3-10 .7zM1390.2 705.2a826.1 826.1 0 0 1-3.8 22c-.5 1.6.4 1.8 8.8 1.8 10.9 0 15.6-1.7 20.5-7.3 5.9-6.8 7.5-21.1 3.1-28.9-3.3-5.9-7.5-7.8-17.3-7.8h-8.1l-3.2 20.2zm19.7-12.8c3.7 2 5.1 5.5 5.1 13 0 10.6-5.6 16.7-16.1 17.4-5.6.4-6.1.3-5.6-1.4.3-1.1 1.6-8.3 2.8-16.2l2.2-14.2h4.4c2.4 0 5.6.6 7.2 1.4zM1488.2 704.7c-1.9 10.9-3.6 20.8-3.9 22-.4 2-.1 2.3 2.5 2.3 3.5 0 3.2 1 6.3-18.5 1.2-7.7 2.5-14.3 2.8-14.7.4-.4 2.9 6.8 5.6 16l5 16.7h7.9l3.6-21.8 3.7-21.7h-2.8c-3.3 0-3.1-.5-5.9 16.5-1.2 7.1-2.4 13.8-2.8 14.8-.5 1.1-2.4-4-5.6-14.8l-5-16.5h-8.1l-3.3 19.7zM1569.2 705.2a826.1 826.1 0 0 1-3.8 22c-.4 1.4.1 1.8 2.5 1.8 3.4 0 3.4-.1 5.1-11 .6-4.1 1.3-8.2 1.6-9 .3-.8 2.8 3.3 5.6 9.3 5 10.4 5.2 10.7 8.4 10.7h3.3l-3.4-7.2c-1.9-4-3.5-7.7-3.5-8.3 0-.5 1.8-1.7 3.9-2.6 9.6-4.1 10.2-19.9 1-24.6-1.3-.7-5.8-1.3-9.9-1.3h-7.6l-3.2 20.2zM1588 693c2.3 2.3 2.6 7.6.6 10.2-1.7 2.3-5.9 3.8-10.3 3.8-3.4 0-3.5-.1-3-2.9.3-1.5.9-5.1 1.3-8l.7-5.1h4.3c3.1 0 5 .6 6.4 2zM1602 686.4c0 .8-.3 2.1-.6 3-.5 1.3.2 1.6 3.5 1.6 3.1 0 4.1.4 4.1 1.6 0 1.7-4.6 30-5.5 34.1-.5 2-.1 2.3 2.4 2.3 3.6 0 3.2 1 6.8-20.8l2.7-17.2h4.3c4.1 0 4.3-.1 4.3-3v-3h-11c-8.8 0-11 .3-11 1.4zM1629 685.7c0 .5-1.6 10-3.5 21.3s-3.5 20.8-3.5 21.2c0 .5 4.4.8 9.9.8h9.9l.5-2.7c.3-1.6.3-3.1 0-3.5-.2-.5-3.4-.8-6.9-.8h-6.6l.6-3c.3-1.7.9-4.4 1.2-6 .6-3 .6-3 7.4-3 6.2 0 6.8-.2 7.4-2.3 1.2-4.5.9-4.7-6.5-4.7-6.2 0-7-.2-6.5-1.8.2-.9.8-3.6 1.1-6l.7-4.2h6.8c5.3 0 6.9-.4 7.4-1.6 1.6-4.1 1-4.4-9.4-4.4-5.5 0-10 .3-10 .7z"/></svg>