<svg xmlns="http://www.w3.org/2000/svg" width="450" height="246" fill="none"><rect width="20.8" height="20.8" y="53.6" fill="#95EAAC" rx="4"/><rect width="20.8" height="20.8" x="228.8" y="53.6" fill="#95EAAC" rx="4"/><rect width="20.8" height="20.8" x="114.4" y="53.6" fill="#1BA254" rx="4"/><rect width="20.8" height="20.8" x="343.2" y="53.6" fill="#1BA254" rx="4"/><rect width="20.8" height="20.8" y="168" fill="#95EAAC" rx="4"/><rect width="20.8" height="20.8" x="228.8" y="168" fill="#95EAAC" rx="4"/><rect width="20.8" height="20.8" x="114.4" y="168" fill="#95EAAC" rx="4"/><rect width="20.8" height="20.8" x="343.2" y="168" fill="#95EAAC" rx="4"/><rect width="20.8" height="20.8" y="110.8" fill="#1BA254" rx="4"/><rect width="20.8" height="20.8" x="228.8" y="110.8" fill="#95EAAC" rx="4"/><rect width="20.8" height="20.8" x="114.4" y="110.8" fill="#95EAAC" rx="4"/><rect width="20.8" height="20.8" x="343.2" y="110.8" fill="#116F3D" rx="4"/><rect width="20.8" height="20.8" y="225.2" fill="#116F3D" rx="4"/><rect width="20.8" height="20.8" x="228.8" y="225.2" fill="#95EAAC" rx="4"/><rect width="20.8" height="20.8" x="114.4" y="225.2" fill="#95EAAC" rx="4"/><rect width="20.8" height="20.8" x="343.2" y="225.2" fill="#95EAAC" rx="4"/><rect width="20.8" height="20.8" x="57.2" y="53.6" fill="#95EAAC" rx="4"/><rect width="20.8" height="20.8" x="286" y="53.6" fill="#95EAAC" rx="4"/><rect width="20.8" height="20.8" x="171.6" y="53.6" fill="#95EAAC" rx="4"/><rect width="20.8" height="20.8" x="400.4" y="53.6" fill="#95EAAC" rx="4"/><rect width="20.8" height="20.8" x="57.2" y="168" fill="#95EAAC" rx="4"/><rect width="20.8" height="20.8" x="286" y="168" fill="#1BA254" rx="4"/><rect width="20.8" height="20.8" x="171.6" y="168" fill="#116F3D" rx="4"/><rect width="20.8" height="20.8" x="400.4" y="168" fill="#EBEDF0" rx="4"/><rect width="20.8" height="20.8" x="57.2" y="110.8" fill="#95EAAC" rx="4"/><rect width="20.8" height="20.8" x="286" y="110.8" fill="#95EAAC" rx="4"/><rect width="20.8" height="20.8" x="171.6" y="110.8" fill="#1BA254" rx="4"/><rect width="20.8" height="20.8" x="400.4" y="110.8" fill="#95EAAC" rx="4"/><rect width="20.8" height="20.8" x="57.2" y="225.2" fill="#95EAAC" rx="4"/><rect width="20.8" height="20.8" x="286" y="225.2" fill="#95EAAC" rx="4"/><rect width="20.8" height="20.8" x="171.6" y="225.2" fill="#95EAAC" rx="4"/><rect width="20.8" height="20.8" x="400.4" y="225.2" fill="#EBEDF0" rx="4"/><rect width="20.8" height="20.8" y="82.2" fill="#1BA254" rx="4"/><rect width="20.8" height="20.8" x="228.8" y="82.2" fill="#95EAAC" rx="4"/><rect width="20.8" height="20.8" x="114.4" y="82.2" fill="#1BA254" rx="4"/><rect width="20.8" height="20.8" x="343.2" y="82.2" fill="#95EAAC" rx="4"/><rect width="20.8" height="20.8" y="196.6" fill="#95EAAC" rx="4"/><rect width="20.8" height="20.8" x="228.8" y="196.6" fill="#95EAAC" rx="4"/><rect width="20.8" height="20.8" x="114.4" y="196.6" fill="#95EAAC" rx="4"/><rect width="20.8" height="20.8" x="343.2" y="196.6" fill="#95EAAC" rx="4"/><rect width="20.8" height="20.8" y="139.4" fill="#95EAAC" rx="4"/><rect width="20.8" height="20.8" x="228.8" y="139.4" fill="#95EAAC" rx="4"/><rect width="20.8" height="20.8" x="114.4" y="139.4" fill="#116F3D" rx="4"/><rect width="20.8" height="20.8" x="343.2" y="139.4" fill="#116F3D" rx="4"/><rect width="20.8" height="20.8" x="85.8" y="82.2" fill="#116F3D" rx="4"/><rect width="20.8" height="20.8" x="314.6" y="82.2" fill="#95EAAC" rx="4"/><rect width="20.8" height="20.8" x="200.2" y="82.2" fill="#116F3D" rx="4"/><rect width="20.8" height="20.8" x="429" y="82.2" fill="#EBEDF0" rx="4"/><rect width="20.8" height="20.8" x="85.8" y="196.6" fill="#1BA254" rx="4"/><rect width="20.8" height="20.8" x="314.6" y="196.6" fill="#116F3D" rx="4"/><rect width="20.8" height="20.8" x="200.2" y="196.6" fill="#95EAAC" rx="4"/><rect width="20.8" height="20.8" x="429" y="196.6" fill="#EBEDF0" rx="4"/><rect width="20.8" height="20.8" x="85.8" y="139.4" fill="#95EAAC" rx="4"/><rect width="20.8" height="20.8" x="314.6" y="139.4" fill="#1BA254" rx="4"/><rect width="20.8" height="20.8" x="200.2" y="139.4" fill="#116F3D" rx="4"/><rect width="20.8" height="20.8" x="429" y="139.4" fill="#EBEDF0" rx="4"/><rect width="20.8" height="20.8" x="28.6" y="53.6" fill="#95EAAC" rx="4"/><rect width="20.8" height="20.8" x="257.4" y="53.6" fill="#95EAAC" rx="4"/><rect width="20.8" height="20.8" x="143" y="53.6" fill="#95EAAC" rx="4"/><rect width="20.8" height="20.8" x="371.8" y="53.6" fill="#95EAAC" rx="4"/><rect width="20.8" height="20.8" x="28.6" y="168" fill="#95EAAC" rx="4"/><rect width="20.8" height="20.8" x="257.4" y="168" fill="#95EAAC" rx="4"/><rect width="20.8" height="20.8" x="143" y="168" fill="#116F3D" rx="4"/><rect width="20.8" height="20.8" x="371.8" y="168" fill="#95EAAC" rx="4"/><rect width="20.8" height="20.8" x="28.6" y="110.8" fill="#1BA254" rx="4"/><rect width="20.8" height="20.8" x="257.4" y="110.8" fill="#2AC56B" rx="4"/><rect width="20.8" height="20.8" x="143" y="110.8" fill="#116F3D" rx="4"/><rect width="20.8" height="20.8" x="371.8" y="110.8" fill="#1BA254" rx="4"/><rect width="20.8" height="20.8" x="28.6" y="225.2" fill="#1BA254" rx="4"/><rect width="20.8" height="20.8" x="257.4" y="225.2" fill="#2AC56B" rx="4"/><rect width="20.8" height="20.8" x="143" y="225.2" fill="#95EAAC" rx="4"/><rect width="20.8" height="20.8" x="371.8" y="225.2" fill="#95EAAC" rx="4"/><rect width="20.8" height="20.8" x="85.8" y="53.6" fill="#95EAAC" rx="4"/><rect width="20.8" height="20.8" x="314.6" y="53.6" fill="#95EAAC" rx="4"/><rect width="20.8" height="20.8" x="200.2" y="53.6" fill="#95EAAC" rx="4"/><rect width="20.8" height="20.8" x="429" y="53.6" fill="#EBEDF0" rx="4"/><rect width="20.8" height="20.8" x="85.8" y="168" fill="#1BA254" rx="4"/><rect width="20.8" height="20.8" x="314.6" y="168" fill="#95EAAC" rx="4"/><rect width="20.8" height="20.8" x="200.2" y="168" fill="#95EAAC" rx="4"/><rect width="20.8" height="20.8" x="429" y="168" fill="#EBEDF0" rx="4"/><rect width="20.8" height="20.8" x="85.8" y="110.8" fill="#95EAAC" rx="4"/><rect width="20.8" height="20.8" x="314.6" y="110.8" fill="#1BA254" rx="4"/><rect width="20.8" height="20.8" x="200.2" y="110.8" fill="#95EAAC" rx="4"/><rect width="20.8" height="20.8" x="429" y="110.8" fill="#EBEDF0" rx="4"/><rect width="20.8" height="20.8" x="85.8" y="225.2" fill="#95EAAC" rx="4"/><rect width="20.8" height="20.8" x="314.6" y="225.2" fill="#95EAAC" rx="4"/><rect width="20.8" height="20.8" x="200.2" y="225.2" fill="#95EAAC" rx="4"/><rect width="20.8" height="20.8" x="429" y="225.2" fill="#EBEDF0" rx="4"/><rect width="20.8" height="20.8" x="28.6" y="82.2" fill="#95EAAC" rx="4"/><rect width="20.8" height="20.8" x="257.4" y="82.2" fill="#95EAAC" rx="4"/><rect width="20.8" height="20.8" x="143" y="82.2" fill="#95EAAC" rx="4"/><rect width="20.8" height="20.8" x="371.8" y="82.2" fill="#1BA254" rx="4"/><rect width="20.8" height="20.8" x="28.6" y="196.6" fill="#116F3D" rx="4"/><rect width="20.8" height="20.8" x="257.4" y="196.6" fill="#95EAAC" rx="4"/><rect width="20.8" height="20.8" x="143" y="196.6" fill="#95EAAC" rx="4"/><rect width="20.8" height="20.8" x="371.8" y="196.6" fill="#116F3D" rx="4"/><rect width="20.8" height="20.8" x="28.6" y="139.4" fill="#95EAAC" rx="4"/><rect width="20.8" height="20.8" x="257.4" y="139.4" fill="#2AC56B" rx="4"/><rect width="20.8" height="20.8" x="143" y="139.4" fill="#95EAAC" rx="4"/><rect width="20.8" height="20.8" x="371.8" y="139.4" fill="#95EAAC" rx="4"/><rect width="20.8" height="20.8" x="57.2" y="82.2" fill="#1BA254" rx="4"/><rect width="20.8" height="20.8" x="286" y="82.2" fill="#116F3D" rx="4"/><rect width="20.8" height="20.8" x="171.6" y="82.2" fill="#1BA254" rx="4"/><rect width="20.8" height="20.8" x="400.4" y="82.2" fill="#95EAAC" rx="4"/><rect width="20.8" height="20.8" x="57.2" y="196.6" fill="#95EAAC" rx="4"/><rect width="20.8" height="20.8" x="286" y="196.6" fill="#95EAAC" rx="4"/><rect width="20.8" height="20.8" x="171.6" y="196.6" fill="#116F3D" rx="4"/><rect width="20.8" height="20.8" x="400.4" y="196.6" fill="#EBEDF0" rx="4"/><rect width="20.8" height="20.8" x="57.2" y="139.4" fill="#116F3D" rx="4"/><rect width="20.8" height="20.8" x="286" y="139.4" fill="#95EAAC" rx="4"/><rect width="20.8" height="20.8" x="171.6" y="139.4" fill="#1BA254" rx="4"/><rect width="20.8" height="20.8" x="400.4" y="139.4" fill="#EBEDF0" rx="4"/><path fill="#838383" fill-rule="evenodd" d="M58 15.5a.5.5 0 0 1 .5.5h3a.5.5 0 0 1 1 0h.667a1.5 1.5 0 0 1 1.5 1.5v5.667a1.5 1.5 0 0 1-1.5 1.5h-6.334a1.5 1.5 0 0 1-1.5-1.5V17.5a1.5 1.5 0 0 1 1.5-1.5h.667a.5.5 0 0 1 .5-.5Zm3.5 1.5v.333a.5.5 0 1 0 1 0V17h.667a.5.5 0 0 1 .5.5v.5h-7.334v-.5a.5.5 0 0 1 .5-.5h.667v.333a.5.5 0 1 0 1 0V17h3Zm-5.167 2v4.167a.5.5 0 0 0 .5.5h6.334a.5.5 0 0 0 .5-.5V19h-7.334Zm3.334 1a.333.333 0 1 1 .666 0 .333.333 0 0 1-.666 0Zm1.666-.333a.333.333 0 1 0 0 .666.333.333 0 0 0 0-.666Zm1 .333A.333.333 0 1 1 63 20a.333.333 0 0 1-.667 0Zm.334 1a.333.333 0 1 0 0 .667.333.333 0 0 0 0-.667ZM61 21.333a.333.333 0 1 1 .667 0 .333.333 0 0 1-.667 0ZM60 21a.333.333 0 1 0 0 .667.333.333 0 0 0 0-.667Zm-1.667.333a.333.333 0 1 1 .667 0 .333.333 0 0 1-.667 0Zm-1-.333a.333.333 0 1 0 0 .667.333.333 0 0 0 0-.667ZM57 22.667a.333.333 0 1 1 .667 0 .333.333 0 0 1-.667 0Zm1.667-.334a.333.333 0 1 0 0 .667.333.333 0 0 0 0-.667Zm1 .334a.333.333 0 1 1 .666 0 .333.333 0 0 1-.666 0Zm1.666-.334a.333.333 0 1 0 0 .667.333.333 0 0 0 0-.667Z" clip-rule="evenodd"/><path fill="#838383" d="M.17 31.87v-1.18h5.56v1.18H3.59V38H2.31v-6.13H.17Zm12.915 2.47c0 2.22-1.46 3.78-3.56 3.78-2.09 0-3.53-1.55-3.53-3.78 0-2.22 1.45-3.78 3.54-3.78s3.55 1.55 3.55 3.78Zm-1.35 0c0-1.56-.86-2.55-2.2-2.55-1.34 0-2.2.99-2.2 2.55 0 1.56.86 2.55 2.2 2.55 1.34 0 2.2-1.01 2.2-2.55Zm1.648-2.47v-1.18h5.56v1.18h-2.14V38h-1.28v-6.13h-2.14ZM19.897 38h-1.33l2.64-7.31h1.31l2.64 7.31h-1.35l-.59-1.69h-2.73l-.59 1.69Zm1.8-5.13-.83 2.36h1.98l-.84-2.36c-.06-.19-.13-.41-.15-.56-.03.14-.09.36-.16.56Zm5.657-2.18v6.13h3.06V38h-4.34v-7.31h1.28Zm9.886 7.43c-2.13 0-3.51-1.48-3.51-3.77 0-2.27 1.43-3.78 3.57-3.78 1.73 0 3.02 1.01 3.27 2.58h-1.35c-.25-.85-.98-1.35-1.95-1.35-1.35 0-2.2.98-2.2 2.54 0 1.55.86 2.55 2.2 2.55.99 0 1.75-.52 1.99-1.33h1.33c-.28 1.54-1.62 2.56-3.35 2.56Zm4.815-.12h-1.33l2.64-7.31h1.31l2.64 7.31h-1.35l-.59-1.69h-2.73l-.59 1.69Zm1.8-5.13-.83 2.36h1.98l-.84-2.36c-.06-.19-.13-.41-.15-.56-.03.14-.09.36-.16.56ZM49.512 38h-1.28v-7.31h2.79c1.66 0 2.63.84 2.63 2.28 0 .98-.46 1.68-1.32 2.03l1.39 3h-1.4l-1.24-2.73h-1.57V38Zm0-6.17v2.31h1.51c.81 0 1.29-.43 1.29-1.17 0-.73-.48-1.14-1.29-1.14h-1.51Zm8.05 6.17h-2.63v-7.31h2.56c2.16 0 3.65 1.49 3.65 3.67 0 2.15-1.46 3.64-3.58 3.64Zm-.19-6.13h-1.16v4.95h1.23c1.46 0 2.35-.94 2.35-2.46 0-1.55-.91-2.49-2.42-2.49Zm4.541.86c0-1.28 1.06-2.17 2.6-2.17 1.48 0 2.42.82 2.46 2.14h-1.28c-.03-.63-.48-1-1.2-1-.79 0-1.3.38-1.3.99 0 .52.28.81.89.95l1.15.25c1.25.27 1.86.91 1.86 2 0 1.36-1.06 2.24-2.67 2.24-1.56 0-2.58-.83-2.61-2.14h1.28c.01.62.51.99 1.33.99.85 0 1.39-.37 1.39-.98 0-.49-.25-.78-.85-.91l-1.16-.26c-1.24-.27-1.89-.98-1.89-2.1Z"/><path fill="#000" d="M14.616 21.664H12.48V25H9.576v-3.336H.672v-2.688l7.944-11.52h3.864v11.52h2.136v2.688Zm-10.68-2.688h5.64v-8.208l-5.64 8.208Zm14.685 6.312c-1.056 0-1.944-.864-1.944-1.896 0-1.056.888-1.92 1.944-1.92s1.944.864 1.944 1.92c0 1.032-.888 1.896-1.944 1.896Zm10.209 0c-3.672 0-6.096-2.352-6.096-5.904h3.048c0 1.992 1.176 3.168 3.12 3.168 2.064 0 3.384-1.344 3.384-3.48 0-2.04-1.224-3.432-3.336-3.432-1.344 0-2.568.672-3.192 1.584l-2.712-.576 2.16-9.192h9.144v2.832h-6.936l-.936 3.648c.84-.552 1.896-.864 3.096-.864 3.504 0 5.832 2.376 5.832 5.832 0 3.792-2.664 6.384-6.576 6.384ZM41.157 7.456v9.216l7.104-9.216h3.624l-5.808 7.488L51.957 25h-3.552l-4.344-7.464-2.904 3.72V25h-3.072V7.456h3.072Z"/></svg>