<svg xmlns="http://www.w3.org/2000/svg" width="551" height="164" fill="none"><path fill="#116F3D" d="M227.59 72a4 4 0 0 1 4-4h87.82a4 4 0 0 1 4 4v88a4 4 0 0 1-4 4H231.6a4 4 0 0 1-4-4V72Z"/><path fill="#95EAAC" d="M355.36 72a4 4 0 0 1 4-4h87.82a4 4 0 0 1 4 4v88a4 4 0 0 1-4 4h-87.82a4 4 0 0 1-4-4V72ZM99.82 72a4 4 0 0 1 4-4h87.83a4 4 0 0 1 4 4v88a4 4 0 0 1-4 4h-87.83a4 4 0 0 1-4-4V72Z"/><path fill="#EBEDF0" d="M0 68h63.88a4 4 0 0 1 4 4v88a4 4 0 0 1-4 4H0V68ZM551 68h-64a4 4 0 0 0-4 4v88a4 4 0 0 0 4 4h64V68Z"/><path fill="#1E1E1E" d="m275.15 32 6.88 8.48-6.88 8.48-6.87-8.48z"/><path fill="#1E1E1E" d="M135 4a4 4 0 0 1 4-4h272.47a4 4 0 0 1 4 4v32a4 4 0 0 1-4 4H139a4 4 0 0 1-4-4V4Z"/><path fill="#fff" d="m213.21 24.98-8.11.02v-1.54l3.82-3.23c1.59-1.34 2.11-2.11 2.11-3.23 0-1.33-.72-2.08-1.95-2.08-1.28 0-2.08.9-2.1 2.4h-2.03c.02-2.56 1.65-4.22 4.13-4.22 2.5 0 4.05 1.42 4.05 3.79 0 1.63-.9 2.86-2.67 4.38l-2.11 1.81h4.86v1.9Zm4.83-5.77h-1.43v-1.33l3.01-2.77h-4.86v-1.8h7.42v1.63l-2.85 2.62c1.8.35 3.19 1.66 3.19 3.73 0 2.4-1.87 3.92-4.24 3.92-2.29 0-4.07-1.41-4.07-3.94h2.02c0 1.35.83 2.11 2.08 2.11 1.28 0 2.13-.83 2.13-2.12 0-1.19-.77-2.05-2.4-2.05Zm9.82 1.82c0-2.45 1.61-4.17 3.95-4.17 2.16 0 3.63 1.2 3.84 3.1h-1.95c-.22-.9-.88-1.36-1.8-1.36-1.26 0-2.09.94-2.09 2.43 0 1.49.77 2.42 2.02 2.42.97 0 1.66-.48 1.87-1.35h1.97c-.24 1.84-1.78 3.1-3.84 3.1-2.4 0-3.97-1.66-3.97-4.17Zm11.61 4.18c-1.68 0-2.7-.98-2.7-2.47 0-1.45 1.05-2.36 2.93-2.5l2.36-.18v-.18c0-1.07-.64-1.5-1.63-1.5-1.15 0-1.79.48-1.79 1.3h-1.66c0-1.7 1.4-2.82 3.55-2.82 2.13 0 3.44 1.15 3.44 3.34V25h-1.71l-.15-1.17c-.33.82-1.4 1.38-2.64 1.38Zm.64-1.47c1.2 0 1.97-.72 1.97-1.94v-.42l-1.65.13c-1.21.11-1.68.51-1.68 1.15 0 .72.48 1.08 1.36 1.08Zm10.74-6.68v1.81h-.72c-1.41 0-2.3.75-2.3 2.29V25h-1.94v-7.89h1.84l.1 1.15c.34-.78 1.1-1.3 2.15-1.3.27 0 .55.02.87.1Zm4.3 8.15c-2.29 0-3.71-1.68-3.71-4.13 0-2.46 1.44-4.22 3.82-4.22 1.1 0 2.08.46 2.58 1.24v-5h1.93V25h-1.79l-.13-1.23c-.48.91-1.5 1.44-2.7 1.44Zm.43-1.8c1.36 0 2.24-.97 2.24-2.4 0-1.42-.88-2.41-2.24-2.41-1.36 0-2.19 1-2.19 2.42 0 1.4.83 2.4 2.2 2.4Zm5.62-.81h1.86c.01.69.52 1.12 1.42 1.12.91 0 1.4-.37 1.4-.94 0-.4-.2-.7-.9-.85l-1.43-.34c-1.42-.32-2.11-.99-2.11-2.25 0-1.56 1.31-2.48 3.14-2.48 1.77 0 2.97 1.02 2.99 2.56h-1.86c-.01-.68-.46-1.1-1.21-1.1-.77 0-1.22.34-1.22.94 0 .44.35.73 1.02.9l1.43.33c1.33.3 2 .91 2 2.13 0 1.6-1.36 2.59-3.31 2.59-1.97 0-3.22-1.06-3.22-2.61Zm15.57 2.6c-2.28 0-3.7-1.67-3.7-4.12 0-2.46 1.43-4.22 3.82-4.22 1.1 0 2.08.46 2.57 1.24v-5h1.94V25h-1.8l-.12-1.23c-.48.91-1.5 1.44-2.7 1.44Zm.44-1.78c1.36 0 2.24-.98 2.24-2.4 0-1.43-.88-2.42-2.24-2.42-1.36 0-2.2 1-2.2 2.42 0 1.4.84 2.4 2.2 2.4Zm11.58-6.32h1.95V25h-1.8l-.15-1.06a3.1 3.1 0 0 1-2.56 1.27c-1.82 0-2.9-1.23-2.9-3.17V17.1h1.96v4.25c0 1.5.6 2.11 1.68 2.11 1.23 0 1.82-.72 1.82-2.22V17.1Zm7.35 8.1c-2.35 0-4-1.7-4-4.15 0-2.48 1.62-4.2 3.94-4.2 2.37 0 3.87 1.59 3.87 4.05v.6l-5.95.01c.14 1.4.88 2.1 2.17 2.1 1.07 0 1.78-.42 2-1.17h1.81c-.34 1.73-1.78 2.77-3.84 2.77Zm-.05-6.74c-1.15 0-1.85.62-2.04 1.8H298c0-1.08-.75-1.8-1.92-1.8ZM308.51 25h-1.95v-6.27h-1.52V17.1h1.52v-2.47h1.95v2.47h1.54v1.63h-1.54V25Zm2.2-3.97c0-2.46 1.79-4.16 4.23-4.16 2.45 0 4.23 1.7 4.23 4.16 0 2.47-1.78 4.16-4.23 4.16-2.44 0-4.22-1.7-4.22-4.16Zm1.96 0c0 1.44.93 2.42 2.27 2.42 1.35 0 2.27-.98 2.27-2.42s-.92-2.41-2.27-2.41c-1.34 0-2.27.97-2.27 2.41Zm11.3 4.18c-2.3 0-3.72-1.68-3.72-4.13 0-2.46 1.44-4.22 3.82-4.22 1.1 0 2.08.46 2.58 1.24v-5h1.94V25h-1.8l-.12-1.23c-.48.91-1.5 1.44-2.7 1.44Zm.42-1.8c1.36 0 2.24-.97 2.24-2.4 0-1.42-.88-2.41-2.24-2.41-1.36 0-2.19 1-2.19 2.42 0 1.4.83 2.4 2.2 2.4Zm8.58 1.8c-1.68 0-2.7-.98-2.7-2.47 0-1.45 1.05-2.36 2.93-2.5l2.36-.18v-.18c0-1.07-.64-1.5-1.63-1.5-1.15 0-1.79.48-1.79 1.3h-1.66c0-1.7 1.4-2.82 3.55-2.82 2.13 0 3.44 1.15 3.44 3.34V25h-1.71l-.15-1.17c-.33.82-1.4 1.38-2.64 1.38Zm.64-1.47c1.2 0 1.97-.72 1.97-1.94v-.42l-1.65.13c-1.21.11-1.68.51-1.68 1.15 0 .72.48 1.08 1.36 1.08Zm4.87 4.92v-1.63h1.17c.77 0 1.25-.17 1.58-1.1l.22-.6-3.18-8.23h2.06l2.04 5.76 2.14-5.76h2.02l-3.88 9.66c-.59 1.47-1.42 2.08-2.71 2.08-.55 0-1.03-.06-1.46-.18Z"/></svg>